<svg fill="#FFFFFF" xmlns="http://www.w3.org/2000/svg" xmlns:xlink="http://www.w3.org/1999/xlink" version="1.1" x="0px" y="0px" viewBox="0 0 100 100" style="enable-background:new 0 0 100 100;" xml:space="preserve"><g><path d="M57.75,31.16H33.84c-0.83,0-1.5,0.67-1.5,1.5c0,0.83,0.67,1.5,1.5,1.5h23.91c0.83,0,1.5-0.67,1.5-1.5   C59.25,31.83,58.58,31.16,57.75,31.16z"></path><path d="M57.75,43.77H33.84c-0.83,0-1.5,0.67-1.5,1.5c0,0.83,0.67,1.5,1.5,1.5h23.91c0.83,0,1.5-0.67,1.5-1.5   C59.25,44.44,58.58,43.77,57.75,43.77z"></path><path d="M57.75,56.38H33.84c-0.83,0-1.5,0.67-1.5,1.5s0.67,1.5,1.5,1.5h23.91c0.83,0,1.5-0.67,1.5-1.5S58.58,56.38,57.75,56.38z"></path><path d="M50,5C25.147,5,5,25.147,5,50s20.147,45,45,45s45-20.147,45-45S74.853,5,50,5z M26.28,67.39V24.2c0-0.11,0.09-0.2,0.2-0.2   h38.64c0.11,0,0.2,0.09,0.2,0.2v43.19c0,0.11-0.09,0.2-0.2,0.2H26.48C26.37,67.59,26.28,67.5,26.28,67.39z M73.72,75.8   c0,0.11-0.09,0.2-0.2,0.2H34.88c-0.11,0-0.2-0.09-0.2-0.2v-5.01c0-0.111,0.09-0.2,0.2-0.2h33.24c0.11,0,0.2-0.09,0.2-0.2V32.61   c0-0.11,0.09-0.2,0.2-0.2h5c0.11,0,0.2,0.09,0.2,0.2V75.8z"></path></g></svg>